<?xml version="1.0" encoding="utf-8"?>
<!-- Generator: Adobe Illustrator 20.1.0, SVG Export Plug-In . SVG Version: 6.00 Build 0)  -->
<svg version="1.1" xmlns="http://www.w3.org/2000/svg" xmlns:xlink="http://www.w3.org/1999/xlink" x="0px" y="0px"
	 viewBox="0 0 250 250" style="enable-background:new 0 0 250 250;" xml:space="preserve">
<style type="text/css">
	.st0{display:none;}
	.st1{display:inline;}
	.st2{fill:#FFFFFF;}
	.st3{fill:#4D4D4D;}
</style>
<g id="Layer_1">
	<rect x="-1271.7" y="67.3" style="fill:none;" width="84.7" height="10.1"/>
	<text transform="matrix(1 0 0 1 -1271.6967 75.8298)" style="font-family:'MyriadPro-Regular'; font-size:12px;">Business growth</text>
	<rect x="-1271.7" y="529.9" style="fill:none;" width="84.7" height="10.1"/>
	<text transform="matrix(1 0 0 1 -1271.6967 538.45)" style="font-family:'MyriadPro-Regular'; font-size:12px;">Services</text>
	<rect x="-1271.7" y="1037.6" style="fill:none;" width="84.7" height="10.1"/>
	<text transform="matrix(1 0 0 1 -1271.6967 1046.1595)" style="font-family:'MyriadPro-Regular'; font-size:12px;">Teamwork</text>
</g>
<g id="icons">
	<g class="st0">
		<g class="st1">
			<line class="st2" x1="50.9" y1="156.3" x2="199.1" y2="156.3"/>
			<rect x="50.9" y="155.4" class="st3" width="148.1" height="1.8"/>
		</g>
		<g class="st1">
			<path class="st3" d="M180,156.4h-18.6c-0.8,0-1.5-0.7-1.5-1.5V95.3c0-1.4,1.1-2.6,2.6-2.6h16.5c1.4,0,2.6,1.1,2.6,2.6v59.7
				C181.5,155.8,180.8,156.4,180,156.4z"/>
		</g>
		<g class="st1">
			<path class="st3" d="M149,157.2h-18.6c-1.3,0-2.4-1.1-2.4-2.4v-41.1c0-1.9,1.6-3.5,3.5-3.5h16.5c1.9,0,3.5,1.6,3.5,3.5v41.1
				C151.4,156.1,150.3,157.2,149,157.2z M131.5,112c-0.9,0-1.6,0.7-1.6,1.6v41.1c0,0.3,0.3,0.6,0.6,0.6H149c0.3,0,0.6-0.3,0.6-0.6
				v-41.1c0-0.9-0.7-1.6-1.6-1.6H131.5z"/>
		</g>
		<g class="st1">
			<path class="st3" d="M117,156.3H98.4c-0.8,0-1.5-0.7-1.5-1.5v-27.7c0-1.4,1.1-2.6,2.6-2.6h16.5c1.4,0,2.6,1.1,2.6,2.6v27.7
				C118.5,155.6,117.8,156.3,117,156.3z"/>
		</g>
		<g class="st1">
			<path class="st3" d="M86.6,156.8H68c-1.3,0-2.4-1.1-2.4-2.4v-16.8c0-1.9,1.6-3.5,3.5-3.5h16.5c1.9,0,3.5,1.6,3.5,3.5v16.8
				C89,155.7,87.9,156.8,86.6,156.8z M69.1,136c-0.9,0-1.6,0.7-1.6,1.6v16.8c0,0.3,0.3,0.6,0.6,0.6h18.6c0.3,0,0.6-0.3,0.6-0.6
				v-16.8c0-0.9-0.7-1.6-1.6-1.6H69.1z"/>
		</g>
		<g class="st1">
			<polygon class="st3" points="53.7,125.7 52.8,124.1 114.2,87.9 114.2,100.9 171.3,66.6 172.2,68.2 112.4,104.2 112.4,91.1 			"/>
		</g>
		<g class="st1">
			<path class="st3" d="M244.3,41.6H5.7c-1.9,0-3.4-1.5-3.4-3.4V25.5c0-1.9,1.5-3.4,3.4-3.4h238.6c1.9,0,3.4,1.5,3.4,3.4v12.7
				C247.7,40.1,246.2,41.6,244.3,41.6z"/>
		</g>
		<g class="st1">
			<path class="st3" d="M172,81.8L160,60.9c-0.3-0.5,0.1-1,0.6-1l24.2,0c0.5,0,0.9,0.6,0.6,1l-12.1,20.9
				C173,82.3,172.3,82.3,172,81.8z"/>
		</g>
		<g class="st1">
			<path class="st3" d="M125,18.6c-4.3,0-7.9-3.5-7.9-7.9s3.5-7.9,7.9-7.9c4.3,0,7.9,3.5,7.9,7.9S129.3,18.6,125,18.6z M125,4.7
				c-3.3,0-6,2.7-6,6s2.7,6,6,6c3.3,0,6-2.7,6-6S128.3,4.7,125,4.7z"/>
		</g>
		<g class="st1">
			<path class="st3" d="M230.8,41.6v126.8c0,1.9-1.6,3.5-3.5,3.5H22.6c-1.9,0-3.5-1.6-3.5-3.5V41.6h-4.3v129.7
				c0,2.9,2.3,5.2,5.2,5.2H230c2.9,0,5.2-2.3,5.2-5.2V41.6H230.8z"/>
		</g>
		<g class="st1">
			<path class="st3" d="M125,192.3c-13.8,0-25-8.8-25-19.7v-0.9h50v0.9C150,183.5,138.8,192.3,125,192.3z M101.9,173.6
				c0.6,9.4,10.8,16.9,23.1,16.9s22.5-7.5,23.1-16.9H101.9z"/>
		</g>
		<g class="st1">
			<path class="st3" d="M106.3,192.7c-22,17.2-44,34.4-66,51.6c-1.2,0.9-0.5,2.8,1,2.8h8.8c0.2,0,0.3-0.1,0.4-0.2
				c21.3-16.7,42.5-33.3,63.8-50c-1-0.1-2.7-0.5-4.5-1.5C108.1,194.6,107,193.5,106.3,192.7z"/>
		</g>
		<g class="st1">
			<path class="st3" d="M143.7,192.7c22,17.2,44,34.4,66,51.6c1.2,0.9,0.5,2.8-1,2.8h-8.8c-0.2,0-0.3-0.1-0.4-0.2
				c-21.3-16.7-42.5-33.3-63.8-50c1-0.1,2.7-0.5,4.5-1.5C141.9,194.6,143,193.5,143.7,192.7z"/>
		</g>
	</g>
	<g class="st0">
		<g class="st1">
			<path class="st3" d="M125,22.1c-28.1,0-50.9,22.8-50.9,50.9c0,28.1,22.8,50.9,50.9,50.9S175.9,101,175.9,73
				C175.9,44.9,153.1,22.1,125,22.1z M125.4,111.7c-3.5,0-6.3-2.8-6.3-6.3c0-3.5,2.8-6.3,6.3-6.3c3.5,0,6.3,2.8,6.3,6.3
				C131.7,108.8,128.9,111.7,125.4,111.7z"/>
		</g>
		<g class="st1">
			<path class="st3" d="M224.4,246.9c0.7-4.9,1.2-9.8,1.2-14.9c0-55.6-45.1-100.6-100.6-100.6c-55.6,0-100.6,45.1-100.6,100.6
				c0,5.1,0.5,10,1.2,14.9H224.4z"/>
		</g>
		<g class="st1">
			<path class="st2" d="M125,142.8h-15c-0.9,0-1.3,1-0.8,1.7l15,19.8c0.4,0.5,1.2,0.5,1.6,0l15-19.8c0.5-0.7,0-1.7-0.8-1.7H125z"/>
		</g>
		<g class="st1">
			<path class="st2" d="M124.2,168.8l-11.1,48.5c-0.1,0.3,0.1,0.7,0.4,0.9l11.1,6.7c0.3,0.2,0.6,0.2,0.9,0l11.1-6.7
				c0.3-0.2,0.5-0.5,0.4-0.9l-11.1-48.5C125.6,168,124.4,168,124.2,168.8z"/>
		</g>
		<g class="st1">
			<path class="st3" d="M193.7,72.7l-2.7-0.1c0.2-6.5-0.7-29.2-18.5-47.5C155,7.5,133.2,5.8,124.6,5.8c-8,0.1-28.3,1.9-45.3,17.9
				C60,41.8,58.4,65.4,58.4,72.2l-2.7,0c0-7.1,1.7-31.6,21.7-50.5C95.1,5,116.3,3.1,124.5,3.1c9-0.1,31.7,1.8,49.8,20.2
				C193,42.2,193.9,65.9,193.7,72.7z"/>
		</g>
		<g class="st1">
			<path class="st3" d="M199.1,99.3h-12.3c-1.9,0-3.4-1.5-3.4-3.4V74.6c0-1.9,1.5-3.4,3.4-3.4h12.3c1.9,0,3.4,1.5,3.4,3.4v21.3
				C202.5,97.8,201,99.3,199.1,99.3z"/>
		</g>
		<g class="st1">
			<path class="st2" d="M122,106.7c-11.1,0-22.1-1.6-32.8-4.9c-10.1-3.1-19.8-7.5-28.7-13.3l1.5-2.3c8.7,5.6,18.1,10,28,13
				c10.4,3.1,21.1,4.7,32,4.7c0,0,0,0,0.1,0L122,106.7C122.1,106.7,122.1,106.7,122,106.7z"/>
		</g>
		<g class="st1">
			<path class="st3" d="M63.2,99.3H50.9c-1.9,0-3.4-1.5-3.4-3.4V74.6c0-1.9,1.5-3.4,3.4-3.4h12.3c1.9,0,3.4,1.5,3.4,3.4v21.3
				C66.6,97.8,65.1,99.3,63.2,99.3z"/>
		</g>
	</g>
	<g>
		<path class="st3" d="M158.8,71.4c-0.3-1.8-2-2.9-3.8-2.6l-16.3,2.9c-1.9-4-4.2-7.7-6.9-11.2l10.6-12.7c1.2-1.4,1-3.4-0.4-4.6
			l-17.6-14.8c-1.4-1.2-3.4-1-4.6,0.4l-11,13.1c-3.8-1.8-7.8-3.2-12-4.2V20.8c0-1.8-1.5-3.2-3.2-3.2h-23c-1.8,0-3.2,1.5-3.2,3.2
			v16.9c-4.3,1-8.4,2.5-12.3,4.4L44.6,29.5c-1.2-1.4-3.2-1.6-4.6-0.4L22.4,43.8C21,45,20.8,47,22,48.4l10.3,12.2
			c-2.8,3.6-5.2,7.6-7.1,11.7l-15.1-2.7c-1.8-0.3-3.4,0.9-3.8,2.6L2.3,95c-0.3,1.8,0.9,3.4,2.6,3.8l14.5,2.6c0.2,5,1,9.8,2.3,14.4
			l-12.2,7c-1.6,0.9-2.1,2.9-1.2,4.4l11.5,19.9c0.9,1.6,2.9,2.1,4.4,1.2l11.9-6.9c3.5,3.7,7.3,7,11.6,9.8l-4.5,12.5
			c-0.6,1.7,0.3,3.5,1.9,4.2l21.6,7.9c1.7,0.6,3.5-0.3,4.2-1.9l4.6-12.6c2.2,0.2,4.4,0.4,6.6,0.4c2.9,0,5.8-0.3,8.6-0.7l4.6,12.6
			c0.6,1.7,2.5,2.6,4.2,1.9l21.6-7.9c1.7-0.6,2.6-2.5,1.9-4.2l-4.8-13.2c4-2.8,7.7-6.1,11-9.8l12.3,7.1c1.6,0.9,3.5,0.4,4.4-1.2
			l11.5-19.9c0.9-1.6,0.4-3.5-1.2-4.4l-13.3-7.7c1.1-4.4,1.8-9,1.9-13.7l15.3-2.7c1.8-0.3,2.9-2,2.6-3.8L158.8,71.4z M36.2,98.7
			c0-25.3,20.5-45.9,45.9-45.9S128,73.4,128,98.7c0,25.3-20.5,45.9-45.9,45.9S36.2,124,36.2,98.7z"/>
		<g>
			<path class="st3" d="M68.8,87.5c-6.5,7.4-6.2,18.3,0.6,24.3l23.5-26.9C86.1,78.9,75.3,80.1,68.8,87.5z"/>
			<path class="st3" d="M96.3,111.6c-6.5,7.4-17.3,8.6-24.2,2.6l23.5-26.9C102.5,93.3,102.8,104.1,96.3,111.6z"/>
		</g>
		<g>
			<path class="st3" d="M245.5,151c-0.2-1-1.1-1.6-2.1-1.5l-9,1.6c-1.1-2.2-2.3-4.3-3.8-6.2l5.9-7c0.6-0.8,0.5-1.9-0.2-2.5l-9.7-8.2
				c-0.8-0.6-1.9-0.5-2.5,0.2l-6.1,7.3c-2.1-1-4.3-1.8-6.7-2.3V123c0-1-0.8-1.8-1.8-1.8h-12.7c-1,0-1.8,0.8-1.8,1.8v9.3
				c-2.4,0.6-4.6,1.4-6.8,2.4l-5.8-7c-0.6-0.8-1.8-0.9-2.5-0.2l-9.7,8.2c-0.8,0.6-0.9,1.8-0.2,2.5l5.7,6.8c-1.5,2-2.8,4.2-3.9,6.5
				l-8.3-1.5c-1-0.2-1.9,0.5-2.1,1.5L159,164c-0.2,1,0.5,1.9,1.5,2.1l8,1.4c0.1,2.7,0.5,5.4,1.2,8l-6.7,3.9
				c-0.9,0.5-1.2,1.6-0.7,2.5l6.4,11c0.5,0.9,1.6,1.2,2.5,0.7l6.6-3.8c1.9,2.1,4,3.9,6.4,5.4l-2.5,6.9c-0.3,0.9,0.1,2,1.1,2.3
				l11.9,4.3c0.9,0.3,2-0.1,2.3-1.1l2.5-7c1.2,0.1,2.4,0.2,3.7,0.2c1.6,0,3.2-0.1,4.8-0.4l2.5,6.9c0.3,0.9,1.4,1.4,2.3,1.1l11.9-4.3
				c0.9-0.3,1.4-1.4,1.1-2.3l-2.7-7.3c2.2-1.6,4.3-3.4,6.1-5.4l6.8,3.9c0.9,0.5,2,0.2,2.4-0.7l6.4-11c0.5-0.9,0.2-2-0.7-2.5
				l-7.3-4.2c0.6-2.4,1-5,1.1-7.6l8.4-1.5c1-0.2,1.6-1.1,1.5-2.1L245.5,151z M177.8,166.1c0-14,11.4-25.4,25.4-25.4
				s25.4,11.4,25.4,25.4c0,14-11.4,25.4-25.4,25.4S177.8,180.1,177.8,166.1z"/>
			<g>
				<path class="st3" d="M203.6,156.5c-5.1-0.1-9.4,3.6-9.5,8.3l18.5,0.5C212.8,160.6,208.7,156.6,203.6,156.5z"/>
				<path class="st3" d="M203.1,175.5c-5.1-0.1-9.2-4.1-9-8.8l18.5,0.5C212.5,171.9,208.2,175.6,203.1,175.5z"/>
			</g>
		</g>
		<g>
			<path class="st3" d="M155.9,220.6c0.4-0.5,0.2-1.3-0.3-1.7l-5-3.5c0.5-1.5,0.9-3.1,1.1-4.7l6.1-0.5c0.7-0.1,1.1-0.6,1.1-1.3
				l-0.7-8.4c-0.1-0.7-0.6-1.1-1.3-1.1l-6.3,0.5c-0.5-1.5-1.2-2.9-2-4.2l4.4-4.4c0.5-0.5,0.5-1.2,0-1.7l-6-6c-0.5-0.5-1.2-0.5-1.7,0
				l-4.4,4.4c-1.4-0.8-2.8-1.5-4.3-2.1l0.5-6c0.1-0.7-0.4-1.2-1.1-1.3l-8.4-0.8c-0.7-0.1-1.2,0.4-1.3,1.1l-0.5,5.8
				c-1.7,0.2-3.3,0.6-4.9,1.2l-3.2-4.6c-0.4-0.5-1.1-0.7-1.7-0.3l-6.9,4.8c-0.5,0.4-0.7,1.1-0.3,1.7l3.1,4.4
				c-1.2,1.3-2.3,2.8-3.2,4.3l-5-1.3c-0.6-0.2-1.3,0.2-1.5,0.8l-2.2,8.2c-0.2,0.6,0.2,1.3,0.8,1.5l4.9,1.3c-0.1,1.9,0.1,3.7,0.4,5.6
				l-4.4,2.1c-0.6,0.3-0.9,1-0.6,1.6l3.6,7.7c0.3,0.6,1,0.9,1.6,0.6l4.5-2.1c0.5,0.6,1,1.2,1.6,1.8c0.8,0.8,1.6,1.4,2.4,2.1
				l-2.1,4.5c-0.3,0.6,0,1.3,0.6,1.6l7.7,3.6c0.6,0.3,1.3,0,1.6-0.6l2.2-4.7c1.8,0.3,3.6,0.4,5.4,0.3l1.3,5.1c0.2,0.6,0.8,1,1.5,0.8
				l8.2-2.2c0.6-0.2,1-0.8,0.8-1.5l-1.4-5.4c1.4-0.9,2.8-1.9,4.1-3.1l4.7,3.3c0.5,0.4,1.3,0.2,1.7-0.3L155.9,220.6z M116.9,195.8
				c6.6-6.6,17.3-6.6,23.9,0c6.6,6.6,6.6,17.3,0,23.9c-6.6,6.6-17.3,6.6-23.9,0C110.3,213,110.3,202.4,116.9,195.8z"/>
			<g>
				<path class="st3" d="M133.6,203.5c-2.3-2.5-6.1-2.7-8.4-0.6l8.5,8.9C136,209.7,135.9,205.9,133.6,203.5z"/>
				<path class="st3" d="M124.4,212.1c-2.3-2.5-2.4-6.2-0.1-8.4l8.5,8.9C130.5,214.8,126.8,214.6,124.4,212.1z"/>
			</g>
		</g>
	</g>
</g>
</svg>
