<?xml version="1.0" encoding="utf-8"?>
<!-- Generator: Adobe Illustrator 20.1.0, SVG Export Plug-In . SVG Version: 6.00 Build 0)  -->
<svg version="1.1" id="Layer_1" xmlns="http://www.w3.org/2000/svg" xmlns:xlink="http://www.w3.org/1999/xlink" x="0px" y="0px"
	 viewBox="0 0 250 250" style="enable-background:new 0 0 250 250;" xml:space="preserve">
<style type="text/css">
	.st0{fill:url(#SVGID_1_);}
	.st1{fill:url(#SVGID_2_);}
	.st2{fill:url(#SVGID_3_);}
	.st3{fill:url(#SVGID_4_);}
	.st4{opacity:0.1;fill:#FFFFFF;}
</style>
<linearGradient id="SVGID_1_" gradientUnits="userSpaceOnUse" x1="9.094947e-13" y1="26.7907" x2="247.991" y2="26.7907">
	<stop  offset="0" style="stop-color:#4986D5"/>
	<stop  offset="0.5265" style="stop-color:#A84C9D"/>
	<stop  offset="1" style="stop-color:#EF9422"/>
</linearGradient>
<circle class="st0" cx="19.9" cy="26.8" r="19.9"/>
<linearGradient id="SVGID_2_" gradientUnits="userSpaceOnUse" x1="1.7858" y1="153.9227" x2="249.7768" y2="153.9227">
	<stop  offset="0" style="stop-color:#4986D5"/>
	<stop  offset="0.5265" style="stop-color:#A84C9D"/>
	<stop  offset="1" style="stop-color:#EF9422"/>
</linearGradient>
<circle class="st1" cx="230.1" cy="153.9" r="19.9"/>
<linearGradient id="SVGID_3_" gradientUnits="userSpaceOnUse" x1="-0.7606" y1="90.1653" x2="252.6856" y2="90.1653">
	<stop  offset="0" style="stop-color:#4986D5"/>
	<stop  offset="0.5265" style="stop-color:#A84C9D"/>
	<stop  offset="1" style="stop-color:#EF9422"/>
</linearGradient>
<path class="st2" d="M49.3,127.3c-20.6-20-21-52.9-0.8-73.4c19.4-19.7,51.3-20.6,71.8-2c10.7,9.7,16.3,22.8,16.9,36
	c0,0.8,0.7,1.5,1.5,1.5l21.9-0.3c0.8,0,1.5-0.7,1.5-1.6c-0.7-19.1-8.4-38-23.2-52.4C114,11.1,77.1,7.1,48.3,23
	c1.4,8.4-1,17.3-7.4,23.9S25.7,56.2,17.2,55C2.1,84.2,7.1,121,31.9,145.1c14.8,14.4,33.9,21.6,53,21.7c0.8,0,1.5-0.7,1.5-1.6
	l-0.3-21.9c0-0.8-0.7-1.5-1.5-1.5C71.9,141.7,59.2,136.9,49.3,127.3z"/>
<linearGradient id="SVGID_4_" gradientUnits="userSpaceOnUse" x1="-3.5741" y1="90.1447" x2="257.6653" y2="90.1447">
	<stop  offset="0" style="stop-color:#4986D5"/>
	<stop  offset="0.5265" style="stop-color:#A84C9D"/>
	<stop  offset="1" style="stop-color:#EF9422"/>
</linearGradient>
<path class="st3" d="M200.5,53.1c20.5,20,20.8,53,0.6,73.4c-19.4,19.7-51.4,20.5-71.8,1.8c-10.7-9.8-16.3-22.9-16.8-36.2
	c0-0.8-0.7-1.4-1.4-1.4L89,91c-0.8,0-1.4,0.7-1.4,1.4c0.6,19.1,8.3,38.1,23,52.5c24.7,24.2,61.7,28.2,90.5,12.4
	c-1.4-8.4,1-17.3,7.4-23.9c6.4-6.6,15.3-9.2,23.7-8c15.2-29.2,10.3-66-14.5-90.2c-14.8-14.4-33.9-21.7-53-21.8
	c-0.8,0-1.4,0.6-1.4,1.4l0.2,22.1c0,0.8,0.6,1.4,1.4,1.4C177.9,38.6,190.6,43.5,200.5,53.1z"/>
<g>
	<path class="st4" d="M149,153.2c10.1,4.7,19.4,5.3,26.3,5.9c10.8,0.8,19.7-0.4,25.9-1.6c-0.3-1.8-0.6-4.3-0.3-7.3
		c0.5-4.7,2-8.3,3.2-10.5c1.4-2.6,3-4.6,4.5-6.1c6.4-6.5,15.2-9.2,23.6-8c1.4-2.5,2.5-5,3.4-7.2c0.4-1,0.8-2.1,1.2-3.1
		c0.2-0.5,0.3-1,0.5-1.4c0.6-1.7,1.1-3.5,1.5-5.2c0-0.1,0-0.2,0.1-0.3c0.5-1.9,0.8-3.7,1.1-5.6c0-0.1,0-0.2,0.1-0.4
		c0.2-1.4,0.4-2.8,0.5-4.2c0.1-0.9,0.2-1.7,0.2-2.6c0.1-1.4,0.2-2.7,0.2-4.1c0-0.6,0-1.2,0-1.8c0-1.6-0.1-3.2-0.2-4.9
		c0-0.2,0-0.4,0-0.6c-1-13.7-5.8-27.2-14.1-38.8c-0.2-0.3-0.5-0.7-0.7-1c-0.9-1.3-1.9-2.5-3-3.7c-0.5-0.6-1-1.2-1.5-1.8
		c-0.9-1-1.8-2-2.8-2.9c-1.8-1.8-3.5-3.4-5.1-4.7c-0.3-0.3-0.7-0.6-1-0.9c-0.3-0.3-0.6-0.5-0.9-0.7c-1.6-1.3-3.3-2.5-5-3.6
		c-0.7-0.4-1.4-0.9-2-1.3c-0.4-0.2-0.7-0.4-1.1-0.6c-0.9-0.6-1.9-1.1-2.8-1.6c-0.1-0.1-0.2-0.1-0.3-0.2c-13.8-7.3-26.9-8.8-34.1-9
		c-0.4,0-0.8,0-1.2,0c-0.9,0-1.7,0.7-1.7,1.7l0.2,21.6c0,0.9,0.7,1.6,1.6,1.6c0.6,0,1.3,0.1,2.1,0.1c8.1,0.5,16.1,2.8,23.3,7.1
		c0,0,0,0,0.1,0c0.8,0.5,1.7,1,2.5,1.6c1,0.7,2,1.4,3,2.1c0.3,0.3,0.7,0.6,1,0.8c0.5,0.4,1.1,0.9,1.6,1.4c0.3,0.2,0.8,0.7,1.4,1.4
		c0.1,0.1,0.1,0.1,0.2,0.2c0.2,0.2,0.3,0.3,0.5,0.5c0.5,0.5,1.1,1.1,1.7,1.8c4.3,4.7,7.6,10.1,9.8,15.8c2.4,5.8,4,12.6,3.8,20.5
		c-0.5,17.5-10,29.2-12.9,32.5c-3.1,3.6-6.5,6.3-9.6,8.5c-0.5,0.3-1,0.7-1.5,1c-0.7,0.4-1.3,0.8-2,1.2c-1.2,0.7-2.3,1.3-3.5,1.9
		c-0.4,0.2-0.8,0.4-1.1,0.5c-0.9,0.4-1.9,0.8-2.8,1.1c-0.5,0.2-1,0.4-1.5,0.5c-0.1,0-0.3,0.1-0.4,0.1c-0.9,0.3-1.8,0.6-2.7,0.8
		c-0.7,0.2-1.5,0.4-2.4,0.6c-0.6,0.1-1.2,0.3-1.9,0.4c-1.1,0.2-2.4,0.4-3.7,0.6c-0.2,0-0.3,0.1-0.5,0.1c-6.9,0.8-15.8,0.5-25.3-3.4
		c-1.1-0.4-6.3-2.7-12.2-7.4c-0.1-0.1-0.3-0.2-0.4-0.4c-1.1-0.9-2.3-1.9-3.4-3c-0.1-0.1-0.2-0.2-0.3-0.2c-0.1-0.1-0.2-0.2-0.3-0.4
		c-1.1-1.1-2.1-2.2-3.2-3.4c-0.1-0.1-0.1-0.2-0.2-0.3c-1-1.2-2-2.5-2.9-3.8c0-0.1-0.1-0.1-0.1-0.2c-0.7-1-1.3-2-1.9-3
		c-0.2-0.3-0.4-0.6-0.6-1.1c-0.1-0.2-0.2-0.4-0.3-0.6c-0.5-0.9-1-2-1.6-3.3c-0.3-0.7-0.6-1.4-0.9-2.1c-0.3-0.8-0.7-1.7-1-2.7
		c-0.2-0.5-0.3-1-0.5-1.5c-0.9-3.1-1.7-6.7-2-10.6c0-0.4,0-0.7-0.1-1.1c0.1,4.1,0.4,12.8,1.6,18.8
		C117.5,129.2,131.9,145.2,149,153.2z"/>
	<path class="st4" d="M112.6,93.1c0-0.9,0-1.6-0.1-2c0-0.1,0-0.3,0-0.4C112.5,90.7,112.6,91.9,112.6,93.1z"/>
</g>
<g>
	<path class="st4" d="M100.9,27.2c-10.1-4.7-19.4-5.3-26.3-5.9c-10.9-0.8-20,0.4-26.3,1.7c0.2,1.1,0.4,2.7,0.4,4.6
		c0,2.1,0,7.4-3,13.1c-0.4,0.8-1.8,3.4-4.5,6.1c-1,1-3,2.9-6.1,4.7c-3.9,2.2-7.4,3-9.1,3.3c-3.6,0.6-6.6,0.4-8.8,0.1
		c-0.2,0.4-1.8,4.1-3,7c-0.7,1.7-1.2,3.1-1.2,3.1c-0.2,0.5-0.3,1-0.5,1.4c-0.6,1.7-1.1,3.5-1.5,5.2c0,0.1,0,0.2-0.1,0.3
		c-0.5,1.9-0.8,3.7-1.1,5.6c0,0.1,0,0.2-0.1,0.4c-0.2,1.4-0.4,2.8-0.5,4.2c-0.1,0.9-0.2,1.8-0.2,2.6c-0.1,1.4-0.2,2.7-0.2,4.1
		c0,0.6,0,1.2,0,1.8c0,1.6,0.1,3.2,0.2,4.9c0,0.2,0,0.4,0,0.6c1,13.7,5.8,27.2,14.1,38.8c0.2,0.3,0.5,0.7,0.7,1
		c0.9,1.3,1.9,2.5,3,3.7c0.5,0.6,1,1.2,1.5,1.8c0.9,1,1.8,2,2.8,2.9c1.8,1.8,3.5,3.4,5.1,4.7c0.3,0.3,0.7,0.6,1,0.9
		c0.3,0.3,0.6,0.5,0.9,0.7c1.6,1.3,3.3,2.5,5,3.6c0.7,0.4,1.4,0.9,2,1.3c0.4,0.2,0.7,0.4,1.1,0.6c0.9,0.6,1.9,1.1,2.8,1.6
		c0.1,0.1,0.2,0.1,0.3,0.2c13.8,7.3,26.9,8.8,34.1,9c0.5,0,1.1,0,1.6,0c0.7,0,1.3-0.6,1.3-1.3l-0.3-22.4c0-0.7-0.5-1.2-1.2-1.3
		c-0.7,0-1.5-0.1-2.4-0.1c-8.1-0.5-16.1-2.8-23.3-7.1c0,0,0,0-0.1,0c-0.8-0.5-1.7-1-2.5-1.6c-1-0.7-2-1.4-3-2.1
		c-0.3-0.3-0.7-0.6-1-0.8c-0.5-0.4-1.1-0.9-1.6-1.4c-0.3-0.2-0.8-0.7-1.4-1.4c-0.1-0.1-0.1-0.1-0.2-0.2c-0.2-0.2-0.3-0.3-0.5-0.5
		c-0.5-0.5-1.1-1.1-1.7-1.8c-4.3-4.7-7.6-10.1-9.8-15.8c-2.4-5.8-4-12.6-3.8-20.5c0.5-17.5,10-29.2,12.9-32.5
		c3.1-3.6,6.5-6.3,9.6-8.5c0.5-0.3,1-0.7,1.5-1c0.7-0.4,1.3-0.8,2-1.2c1.2-0.7,2.3-1.3,3.5-1.9c0.4-0.2,0.8-0.4,1.1-0.5
		c0.9-0.4,1.9-0.8,2.8-1.1c0.5-0.2,1-0.4,1.5-0.5c0.1,0,0.3-0.1,0.4-0.1c0.9-0.3,1.8-0.6,2.7-0.8c0.7-0.2,1.5-0.4,2.4-0.6
		c0.6-0.1,1.2-0.3,1.9-0.4c1.1-0.2,2.4-0.4,3.7-0.6c0.2,0,0.3-0.1,0.5-0.1c6.9-0.8,15.8-0.5,25.3,3.4c1.1,0.4,6.3,2.7,12.2,7.4
		c0.1,0.1,0.3,0.2,0.4,0.4c1.1,0.9,2.3,1.9,3.4,3c0.1,0.1,0.2,0.2,0.3,0.2c0.1,0.1,0.2,0.2,0.3,0.4c1.1,1.1,2.1,2.2,3.2,3.4
		c0.1,0.1,0.1,0.2,0.2,0.3c1,1.2,2,2.5,2.9,3.8c0,0.1,0.1,0.1,0.1,0.2c0.7,1,1.3,2,1.9,3c0.2,0.3,0.4,0.6,0.6,1.1
		c0.1,0.2,0.2,0.4,0.3,0.6c0.5,0.9,1,2,1.6,3.3c0.3,0.7,0.6,1.4,0.9,2.1c0.3,0.8,0.7,1.7,1,2.7c0.2,0.5,0.3,1,0.5,1.5
		c0.9,3.1,1.7,6.7,2,10.6c0,0.4,0,0.7,0.1,1.1c-0.1-4.1-0.4-12.8-1.6-18.8C132.3,51.1,117.9,35.1,100.9,27.2z"/>
	<path class="st4" d="M137.2,87.2c0,0.9,0,1.6,0.1,2c0,0.1,0,0.3,0,0.4C137.3,89.6,137.3,88.4,137.2,87.2z"/>
</g>
<path class="st4" d="M163.6,27.3c-0.1-4.1-0.1-8.2-0.2-12.3c0-0.8,0.6-1.5,1.4-1.5c7.2,0.1,18.6,1.3,31,6.8
	c10,4.4,16.5,9.9,19.2,12.2c13.5,11.8,19.4,25.8,22.1,33.7c-4.1-9.4-9.4-15.6-13.1-19.3c-14.3-14.3-31.9-17.3-40.4-18.7
	C175.4,26.8,168.4,26.9,163.6,27.3z"/>
<path class="st4" d="M86.3,153c0.1,4,0.1,8.1,0.2,12.1c0,0.9-0.7,1.7-1.7,1.7c-7.2-0.1-18.5-1.3-30.8-6.8
	c-10-4.4-16.5-9.9-19.2-12.2C21.4,136,15.5,122,12.8,114.1c4.1,9.4,9.4,15.6,13.1,19.3c14.3,14.3,31.9,17.3,40.4,18.7
	C74.6,153.5,81.5,153.4,86.3,153z"/>
<path class="st4" d="M21,46.7c11-0.5,19.5-9.9,18.9-20.9c0-0.3-0.1-0.6-0.1-1c-5.5,1.3-12.1,3.4-19.2,6.6C14.5,34.2,9.3,37.2,5.1,40
	C9,44.4,14.7,47,21,46.7z"/>
<path class="st4" d="M230.2,134c-11-0.1-20,8.8-20,19.8c0,0.3,0,0.6,0,1c5.6-1,12.2-2.7,19.5-5.5c6.3-2.4,11.6-5.1,16-7.7
	C242,137,236.4,134,230.2,134z"/>
<g>
	<path d="M68.6,230.4l1.8,1.6c-4.2,3.8-9.2,5.8-14.9,5.8c-6.1,0-11.3-2.2-15.7-6.5c-4.3-4.3-6.5-9.5-6.5-15.7
		c0-6.1,2.2-11.3,6.5-15.6c4.3-4.3,9.5-6.5,15.7-6.5c5.7,0,10.7,1.9,14.9,5.8l-1.8,1.7c-3.7-3.3-8.1-4.9-13-4.9
		c-5.4,0-10,1.9-13.9,5.8c-3.8,3.8-5.8,8.5-5.8,13.9c0,5.4,1.9,10.1,5.8,13.9c3.8,3.8,8.5,5.8,13.9,5.8
		C60.5,235.3,64.9,233.7,68.6,230.4z"/>
	<path d="M87.7,222.2c-0.2,0-0.5,0-0.7,0h-7.3v15h-2.4V194h11.3c3.3,0.5,6.1,1.8,8.4,4.1c2.8,2.8,4.1,6.1,4.1,10
		c0,3.9-1.4,7.2-4.1,10c-1.9,1.9-4.1,3.2-6.6,3.8l10,15.4h-3L87.7,222.2z M79.6,196.5v23.3h7.3c3.2,0,5.9-1.1,8.2-3.4s3.4-5,3.4-8.3
		s-1.1-6-3.4-8.2c-2.3-2.3-5-3.4-8.2-3.4H79.6z"/>
	<path d="M128.2,194v2.4H109v18h19.2v2.4H109v18h19.2v2.4h-21.6V194H128.2z"/>
	<path d="M159.2,196.5h-23.6V194h27.7l-23.6,40.8h23.6v2.4h-27.7L159.2,196.5z"/>
	<path d="M208.7,199.9c4.3,4.3,6.5,9.6,6.5,15.7c0,6.1-2.2,11.4-6.5,15.7c-4.3,4.3-9.6,6.5-15.7,6.5s-11.4-2.2-15.7-6.5
		c-4.3-4.3-6.5-9.6-6.5-15.7c0-6.1,2.2-11.4,6.5-15.7c4.3-4.3,9.6-6.5,15.7-6.5S204.3,195.6,208.7,199.9z M193,195.9
		c-5.4,0-10.1,1.9-13.9,5.8c-3.8,3.8-5.8,8.5-5.8,13.9c0,5.4,1.9,10.1,5.8,13.9c3.8,3.9,8.5,5.8,13.9,5.8c5.4,0,10.1-1.9,13.9-5.8
		c3.8-3.9,5.8-8.5,5.8-13.9c0-5.4-1.9-10.1-5.8-13.9C203.1,197.8,198.4,195.9,193,195.9z"/>
</g>
</svg>
