<?xml version="1.0" encoding="utf-8"?>
<!-- Generator: Adobe Illustrator 21.0.0, SVG Export Plug-In . SVG Version: 6.00 Build 0)  -->
<svg version="1.1" id="Layer_1" xmlns="http://www.w3.org/2000/svg" xmlns:xlink="http://www.w3.org/1999/xlink" x="0px" y="0px"
	 viewBox="0 0 204.1 175.5" style="enable-background:new 0 0 204.1 175.5;" xml:space="preserve">
<style type="text/css">
	.st0{fill:url(#SVGID_1_);}
	.st1{fill:url(#SVGID_2_);}
	.st2{fill:url(#SVGID_3_);}
	.st3{fill:url(#SVGID_4_);}
	.st4{opacity:0.1;fill:#FFFFFF;}
	.st5{fill:url(#SVGID_5_);}
	.st6{fill:url(#SVGID_6_);}
	.st7{fill:url(#SVGID_7_);}
	.st8{fill:url(#SVGID_8_);}
</style>
<linearGradient id="SVGID_1_" gradientUnits="userSpaceOnUse" x1="-898.1321" y1="-107.2187" x2="-416.5962" y2="-107.2187">
	<stop  offset="0" style="stop-color:#4986D5"/>
	<stop  offset="0.5265" style="stop-color:#A84C9D"/>
	<stop  offset="1" style="stop-color:#EF9422"/>
</linearGradient>
<circle class="st0" cx="-859.4" cy="-107.2" r="38.7"/>
<linearGradient id="SVGID_2_" gradientUnits="userSpaceOnUse" x1="-894.6646" y1="139.6395" x2="-413.1286" y2="139.6395">
	<stop  offset="0" style="stop-color:#4986D5"/>
	<stop  offset="0.5265" style="stop-color:#A84C9D"/>
	<stop  offset="1" style="stop-color:#EF9422"/>
</linearGradient>
<circle class="st1" cx="-451.4" cy="139.6" r="38.7"/>
<linearGradient id="SVGID_3_" gradientUnits="userSpaceOnUse" x1="-899.6089" y1="15.8386" x2="-407.4806" y2="15.8386">
	<stop  offset="0" style="stop-color:#4986D5"/>
	<stop  offset="0.5265" style="stop-color:#A84C9D"/>
	<stop  offset="1" style="stop-color:#EF9422"/>
</linearGradient>
<path class="st2" d="M-802.4,87.9c-39.9-38.8-40.7-102.7-1.6-142.5c37.6-38.3,99.7-40.1,139.4-3.9c20.7,18.9,31.6,44.3,32.7,70
	c0.1,1.6,1.4,2.9,3,2.9l42.5-0.6c1.7,0,3-1.4,2.9-3c-1.3-37.1-16.3-73.8-45-101.7c-48.2-46.8-119.9-54.5-175.8-23.6
	c2.8,16.3-1.9,33.7-14.3,46.5s-29.7,18-46,15.6c-29.3,56.7-19.6,128.2,28.5,175c28.7,27.9,65.8,41.9,102.9,42.1c1.7,0,3-1.4,3-3
	l-0.6-42.5c0-1.6-1.3-2.9-3-2.9C-758.6,116-783.3,106.5-802.4,87.9z"/>
<linearGradient id="SVGID_4_" gradientUnits="userSpaceOnUse" x1="-905.072" y1="15.7986" x2="-397.8113" y2="15.7986">
	<stop  offset="0" style="stop-color:#4986D5"/>
	<stop  offset="0.5265" style="stop-color:#A84C9D"/>
	<stop  offset="1" style="stop-color:#EF9422"/>
</linearGradient>
<path class="st3" d="M-508.9-56.1c39.8,38.9,40.4,102.8,1.2,142.5c-37.7,38.2-99.8,39.8-139.4,3.5c-20.7-19-31.6-44.5-32.6-70.3
	c-0.1-1.5-1.3-2.7-2.8-2.7l-42.9,0.5c-1.5,0-2.8,1.3-2.7,2.8c1.1,37.2,16.1,74,44.7,102c48,47,119.7,54.8,175.7,24.1
	c-2.8-16.3,2-33.7,14.5-46.4s29.7-17.9,46.1-15.5c29.5-56.7,20-128.2-28.1-175.1c-28.7-28-65.8-42.2-103-42.4
	c-1.5,0-2.8,1.3-2.8,2.8l0.5,42.9c0,1.5,1.2,2.7,2.7,2.7C-552.7-84.3-528-74.8-508.9-56.1z"/>
<g>
	<path class="st4" d="M-608.9,138.1c19.7,9.1,37.7,10.3,51,11.4c20.9,1.6,38.3-0.7,50.4-3.1c-0.6-3.5-1.1-8.4-0.5-14.2
		c0.9-9.1,3.9-16.1,6.3-20.4c2.7-5,5.9-8.9,8.7-11.8c12.4-12.7,29.5-17.8,45.8-15.5c2.6-4.9,4.8-9.6,6.5-13.9c0.8-2,1.6-4,2.3-6.1
		c0.3-0.9,0.7-1.9,1-2.8c1.1-3.3,2.1-6.7,2.9-10.1c0-0.2,0.1-0.4,0.1-0.5c0.9-3.6,1.6-7.2,2.2-10.9c0-0.2,0.1-0.5,0.1-0.7
		c0.4-2.7,0.8-5.4,1-8.1c0.2-1.7,0.3-3.4,0.4-5c0.2-2.6,0.3-5.2,0.3-7.9c0-1.3,0-2.4,0-3.5c0-3.2-0.1-6.3-0.3-9.5
		c0-0.4,0-0.7-0.1-1.1c-2-26.6-11.2-52.8-27.5-75.4c-0.5-0.6-0.9-1.3-1.4-1.9c-1.8-2.5-3.8-4.9-5.7-7.2c-1-1.2-2-2.3-3-3.4
		c-1.7-1.9-3.5-3.8-5.4-5.7c-3.5-3.6-6.9-6.6-9.9-9.1c-0.7-0.6-1.3-1.1-2-1.7c-0.6-0.5-1.2-0.9-1.7-1.4c-3.1-2.5-6.3-4.8-9.6-6.9
		c-1.3-0.9-2.6-1.7-4-2.5c-0.7-0.4-1.4-0.8-2-1.2c-1.8-1.1-3.6-2.1-5.4-3.1c-0.2-0.1-0.4-0.2-0.6-0.3
		c-26.9-14.3-52.2-17.1-66.2-17.5c-0.8,0-1.6,0-2.4-0.1c-1.8,0-3.3,1.4-3.3,3.3l0.5,42c0,1.7,1.4,3.1,3.1,3.2c1.2,0,2.5,0.1,4,0.2
		c15.7,0.9,31.2,5.5,45.2,13.8c0,0,0.1,0.1,0.1,0.1c1.6,1,3.3,2,4.9,3.1c1.9,1.3,3.9,2.7,5.8,4.2c0.7,0.5,1.3,1.1,1.9,1.6
		c1.1,0.9,2.1,1.7,3.2,2.7c0.5,0.5,1.5,1.4,2.8,2.6c0.1,0.1,0.3,0.2,0.4,0.4c0.3,0.3,0.6,0.7,0.9,1c1,1,2.1,2.2,3.3,3.6
		c8.4,9.2,14.7,19.6,19,30.6c4.6,11.2,7.8,24.6,7.4,39.9c-1,34-19.4,56.6-25.1,63.1c-6.1,6.9-12.5,12.3-18.7,16.5
		c-1,0.7-1.9,1.3-2.9,1.9c-1.3,0.8-2.6,1.6-3.9,2.4c-2.2,1.3-4.5,2.5-6.9,3.6c-0.7,0.4-1.5,0.7-2.2,1.1c-1.8,0.8-3.6,1.5-5.4,2.2
		c-1,0.4-2,0.8-2.9,1.1c-0.2,0.1-0.5,0.2-0.7,0.2c-1.7,0.6-3.4,1.1-5.2,1.6c-1.4,0.4-3,0.8-4.7,1.2c-1.2,0.3-2.4,0.5-3.6,0.8
		c-2.2,0.4-4.6,0.8-7.2,1.1c-0.3,0-0.7,0.1-1,0.1c-13.3,1.5-30.6,0.9-49-6.7c-2.1-0.9-12.3-5.2-23.7-14.4c-0.3-0.2-0.6-0.5-0.9-0.7
		c-2.2-1.8-4.4-3.7-6.7-5.9c-0.2-0.2-0.3-0.3-0.5-0.5c-0.2-0.2-0.4-0.5-0.7-0.7c-2.1-2.1-4.2-4.3-6.2-6.7c-0.1-0.2-0.3-0.4-0.4-0.5
		c-1.9-2.3-3.8-4.8-5.6-7.5c-0.1-0.1-0.2-0.2-0.2-0.3c-1.3-1.9-2.5-3.8-3.7-5.9c-0.3-0.5-0.7-1.2-1.2-2.1c-0.2-0.4-0.4-0.8-0.6-1.2
		c-0.9-1.7-1.9-3.8-3-6.3c-0.6-1.4-1.2-2.7-1.7-4.1c-0.6-1.6-1.3-3.3-1.9-5.2c-0.3-1-0.6-1.9-0.9-2.9c-1.8-6.1-3.4-13-3.9-20.5
		c0-0.7-0.1-1.5-0.1-2.2c0.2,8.1,0.9,24.9,3.1,36.6C-669.9,91.6-642,122.8-608.9,138.1z"/>
	<path class="st4" d="M-679.5,21.6c-0.1-1.8-0.1-3.1-0.1-3.8c0-0.3,0-0.5,0-0.8C-679.6,16.9-679.6,19.3-679.5,21.6z"/>
</g>
<g>
	<path class="st4" d="M-702.3-106.5c-19.7-9.1-37.6-10.3-51-11.4c-21.2-1.6-38.8,0.8-51,3.3c0.4,2.2,0.8,5.3,0.8,9
		c0,4.1,0,14.4-5.9,25.5c-0.8,1.6-3.6,6.5-8.7,11.8c-1.9,1.9-5.8,5.7-11.8,9.1c-7.6,4.3-14.4,5.9-17.7,6.5c-6.9,1.2-12.8,0.9-17,0.3
		c-0.4,0.9-3.6,8-5.8,13.6c-1.3,3.2-2.3,6.1-2.3,6.1c-0.3,0.9-0.7,1.9-1,2.8c-1.1,3.3-2.1,6.7-2.9,10.1c0,0.2-0.1,0.4-0.1,0.5
		c-0.9,3.6-1.6,7.2-2.2,10.9c0,0.2-0.1,0.5-0.1,0.7c-0.4,2.7-0.8,5.4-1,8.1c-0.2,1.7-0.3,3.4-0.4,5c-0.2,2.6-0.3,5.2-0.3,7.9
		c0,1.3,0,2.4,0,3.5c0,3.2,0.1,6.3,0.3,9.5c0,0.4,0,0.7,0.1,1.1c2,26.6,11.2,52.8,27.5,75.4c0.5,0.6,0.9,1.3,1.4,1.9
		c1.8,2.5,3.8,4.9,5.7,7.2c1,1.2,2,2.3,3,3.4c1.7,1.9,3.5,3.8,5.4,5.7c3.5,3.6,6.9,6.6,9.9,9.1c0.7,0.6,1.3,1.1,2,1.7
		c0.6,0.5,1.2,0.9,1.7,1.4c3.1,2.5,6.3,4.8,9.6,6.9c1.3,0.9,2.6,1.7,4,2.5c0.7,0.4,1.4,0.8,2,1.2c1.8,1.1,3.6,2.1,5.4,3.1
		c0.2,0.1,0.4,0.2,0.6,0.3c26.9,14.3,52.2,17.1,66.2,17.5c1.1,0,2.1,0.1,3.2,0.1c1.4,0,2.5-1.1,2.5-2.5l-0.5-43.5
		c0-1.3-1.1-2.4-2.4-2.4c-1.3,0-2.9-0.1-4.7-0.2c-15.7-0.9-31.2-5.5-45.2-13.8c0,0-0.1-0.1-0.1-0.1c-1.6-1-3.3-2-4.9-3.1
		c-1.9-1.3-3.9-2.7-5.8-4.2c-0.7-0.5-1.3-1.1-1.9-1.6c-1.1-0.9-2.1-1.7-3.2-2.7c-0.5-0.5-1.5-1.4-2.8-2.6c-0.1-0.1-0.3-0.2-0.4-0.4
		c-0.3-0.3-0.6-0.7-0.9-1c-1-1-2.1-2.2-3.3-3.6c-8.4-9.2-14.7-19.6-19-30.6c-4.6-11.2-7.8-24.6-7.4-39.9c1-34,19.4-56.6,25.1-63.1
		c6.1-6.9,12.5-12.3,18.7-16.5c1-0.7,1.9-1.3,2.9-1.9c1.3-0.8,2.6-1.6,3.9-2.4c2.2-1.3,4.5-2.5,6.9-3.6c0.7-0.4,1.5-0.7,2.2-1.1
		c1.8-0.8,3.6-1.5,5.4-2.2c1-0.4,2-0.8,2.9-1.1c0.2-0.1,0.5-0.2,0.7-0.2c1.7-0.6,3.4-1.1,5.2-1.6c1.4-0.4,3-0.8,4.7-1.2
		c1.2-0.3,2.4-0.5,3.6-0.8c2.2-0.4,4.6-0.8,7.2-1.1c0.3,0,0.7-0.1,1-0.1c13.3-1.5,30.6-0.9,49,6.7c2.1,0.9,12.3,5.2,23.7,14.4
		c0.3,0.2,0.6,0.5,0.9,0.7c2.2,1.8,4.4,3.7,6.7,5.9c0.2,0.2,0.3,0.3,0.5,0.5c0.2,0.2,0.4,0.5,0.7,0.7c2.1,2.1,4.2,4.3,6.2,6.7
		c0.1,0.2,0.3,0.4,0.4,0.5c1.9,2.3,3.8,4.8,5.6,7.5c0.1,0.1,0.2,0.2,0.2,0.3c1.3,1.9,2.5,3.8,3.7,5.9c0.3,0.5,0.7,1.2,1.2,2.1
		c0.2,0.4,0.4,0.8,0.6,1.2c0.9,1.7,1.9,3.8,3,6.3c0.6,1.4,1.2,2.7,1.7,4.1c0.6,1.6,1.3,3.3,1.9,5.2c0.3,1,0.6,1.9,0.9,2.9
		c1.8,6.1,3.4,13,3.9,20.5c0,0.7,0.1,1.5,0.1,2.2c-0.2-8.1-0.9-24.9-3.1-36.6C-641.3-59.9-669.2-91.1-702.3-106.5z"/>
	<path class="st4" d="M-631.7,10.1c0.1,1.8,0.1,3.1,0.1,3.8c0,0.3,0,0.5,0,0.8C-631.5,14.7-631.6,12.4-631.7,10.1z"/>
</g>
<path class="st4" d="M-580.4-106.3c-0.1-8-0.2-16-0.4-23.9c0-1.6,1.2-2.8,2.8-2.8c14,0.2,36,2.5,60.2,13.2
	c19.3,8.6,32.1,19.2,37.2,23.6c26.1,22.9,37.7,50.1,42.9,65.4c-8-18.3-18.3-30.4-25.4-37.4c-27.8-27.7-61.9-33.7-78.5-36.4
	C-557.5-107.2-571.1-107-580.4-106.3z"/>
<path class="st4" d="M-730.5,137.9c0.1,7.8,0.2,15.7,0.4,23.5c0,1.8-1.4,3.3-3.3,3.3c-14-0.3-35.8-2.6-59.7-13.2
	c-19.3-8.6-32.1-19.2-37.2-23.6c-26.1-22.9-37.7-50.1-42.9-65.4c8,18.3,18.3,30.4,25.4,37.4c27.8,27.7,61.9,33.7,78.5,36.4
	C-753.4,138.8-739.9,138.6-730.5,137.9z"/>
<path class="st4" d="M-857.4-68.6c21.3-1,37.8-19.2,36.8-40.5c0-0.6-0.1-1.2-0.2-1.8c-10.7,2.6-23.5,6.5-37.2,12.7
	c-11.9,5.3-21.9,11.2-30.2,16.7C-880.7-73.1-869.6-68-857.4-68.6z"/>
<path class="st4" d="M-451.2,100.9c-21.4-0.1-38.8,17.1-38.9,38.5c0,0.6,0.1,1.2,0.1,1.9c10.8-2,23.8-5.3,37.9-10.7
	c12.1-4.7,22.5-10,31-15C-428.2,106.7-439,101-451.2,100.9z"/>
<rect x="-839.8" y="217.5" style="fill:none;" width="368.4" height="95.3"/>
<text transform="matrix(1 0 0 1 -839.8289 301.4653)" style="font-family:'CaviarDreams'; font-size:107.43px;">CREZO</text>
<g>
	<linearGradient id="SVGID_5_" gradientUnits="userSpaceOnUse" x1="22.4567" y1="49.7688" x2="174.8162" y2="49.7688">
		<stop  offset="0" style="stop-color:#4986D5"/>
		<stop  offset="0.5265" style="stop-color:#A84C9D"/>
		<stop  offset="1" style="stop-color:#EF9422"/>
	</linearGradient>
	<circle class="st5" cx="34.7" cy="49.8" r="12.2"/>
	<linearGradient id="SVGID_6_" gradientUnits="userSpaceOnUse" x1="23.5538" y1="127.8755" x2="175.9133" y2="127.8755">
		<stop  offset="0" style="stop-color:#4986D5"/>
		<stop  offset="0.5265" style="stop-color:#A84C9D"/>
		<stop  offset="1" style="stop-color:#EF9422"/>
	</linearGradient>
	<circle class="st6" cx="163.8" cy="127.9" r="12.2"/>
	<linearGradient id="SVGID_7_" gradientUnits="userSpaceOnUse" x1="21.9894" y1="88.7046" x2="177.7004" y2="88.7046">
		<stop  offset="0" style="stop-color:#4986D5"/>
		<stop  offset="0.5265" style="stop-color:#A84C9D"/>
		<stop  offset="1" style="stop-color:#EF9422"/>
	</linearGradient>
	<path class="st7" d="M52.7,111.5C40.1,99.2,39.9,79,52.2,66.4c11.9-12.1,31.5-12.7,44.1-1.2c6.5,6,10,14,10.4,22.1
		c0,0.5,0.4,0.9,0.9,0.9l13.4-0.2c0.5,0,0.9-0.4,0.9-1c-0.4-11.7-5.2-23.3-14.2-32.2c-15.2-14.8-37.9-17.2-55.6-7.5
		c0.9,5.2-0.6,10.7-4.5,14.7s-9.4,5.7-14.6,4.9c-9.3,18-6.2,40.6,9,55.4c9.1,8.8,20.8,13.3,32.6,13.3c0.5,0,0.9-0.4,0.9-1l-0.2-13.4
		c0-0.5-0.4-0.9-0.9-0.9C66.6,120.4,58.8,117.4,52.7,111.5z"/>
	<linearGradient id="SVGID_8_" gradientUnits="userSpaceOnUse" x1="20.2609" y1="88.6919" x2="180.7598" y2="88.6919">
		<stop  offset="0" style="stop-color:#4986D5"/>
		<stop  offset="0.5265" style="stop-color:#A84C9D"/>
		<stop  offset="1" style="stop-color:#EF9422"/>
	</linearGradient>
	<path class="st8" d="M145.6,66c12.6,12.3,12.8,32.5,0.4,45.1c-11.9,12.1-31.6,12.6-44.1,1.1c-6.6-6-10-14.1-10.3-22.2
		c0-0.5-0.4-0.8-0.9-0.8l-13.6,0.2c-0.5,0-0.9,0.4-0.9,0.9c0.4,11.8,5.1,23.4,14.2,32.3c15.2,14.9,37.9,17.3,55.6,7.6
		c-0.9-5.2,0.6-10.7,4.6-14.7s9.4-5.7,14.6-4.9c9.3-17.9,6.3-40.6-8.9-55.4c-9.1-8.9-20.8-13.3-32.6-13.4c-0.5,0-0.9,0.4-0.9,0.9
		L123,56c0,0.5,0.4,0.8,0.9,0.9C131.7,57,139.6,60,145.6,66z"/>
	<g>
		<path class="st4" d="M114,127.4c6.2,2.9,11.9,3.3,16.1,3.6c6.6,0.5,12.1-0.2,15.9-1c-0.2-1.1-0.3-2.7-0.2-4.5
			c0.3-2.9,1.2-5.1,2-6.5c0.9-1.6,1.9-2.8,2.8-3.7c3.9-4,9.3-5.6,14.5-4.9c0.8-1.6,1.5-3,2.1-4.4c0.3-0.6,0.5-1.3,0.7-1.9
			c0.1-0.3,0.2-0.6,0.3-0.9c0.3-1.1,0.7-2.1,0.9-3.2c0-0.1,0-0.1,0-0.2c0.3-1.1,0.5-2.3,0.7-3.4c0-0.1,0-0.1,0-0.2
			c0.1-0.9,0.2-1.7,0.3-2.6c0.1-0.5,0.1-1.1,0.1-1.6c0.1-0.8,0.1-1.7,0.1-2.5c0-0.4,0-0.8,0-1.1c0-1,0-2-0.1-3c0-0.1,0-0.2,0-0.4
			c-0.6-8.4-3.5-16.7-8.7-23.8c-0.1-0.2-0.3-0.4-0.4-0.6c-0.6-0.8-1.2-1.5-1.8-2.3c-0.3-0.4-0.6-0.7-0.9-1.1
			c-0.5-0.6-1.1-1.2-1.7-1.8c-1.1-1.1-2.2-2.1-3.1-2.9c-0.2-0.2-0.4-0.4-0.6-0.5c-0.2-0.2-0.4-0.3-0.6-0.4c-1-0.8-2-1.5-3-2.2
			c-0.4-0.3-0.8-0.5-1.3-0.8c-0.2-0.1-0.4-0.3-0.6-0.4c-0.6-0.3-1.1-0.7-1.7-1c-0.1,0-0.1-0.1-0.2-0.1c-8.5-4.5-16.5-5.4-20.9-5.5
			c-0.2,0-0.5,0-0.7,0c-0.6,0-1.1,0.5-1,1l0.2,13.3c0,0.5,0.4,1,1,1c0.4,0,0.8,0,1.3,0.1c5,0.3,9.9,1.8,14.3,4.4c0,0,0,0,0,0
			c0.5,0.3,1,0.6,1.5,1c0.6,0.4,1.2,0.8,1.8,1.3c0.2,0.2,0.4,0.3,0.6,0.5c0.3,0.3,0.7,0.5,1,0.8c0.2,0.1,0.5,0.4,0.9,0.8
			c0,0,0.1,0.1,0.1,0.1c0.1,0.1,0.2,0.2,0.3,0.3c0.3,0.3,0.7,0.7,1,1.1c2.6,2.9,4.7,6.2,6,9.7c1.5,3.5,2.5,7.8,2.3,12.6
			c-0.3,10.8-6.1,17.9-7.9,20c-1.9,2.2-4,3.9-5.9,5.2c-0.3,0.2-0.6,0.4-0.9,0.6c-0.4,0.3-0.8,0.5-1.2,0.7c-0.7,0.4-1.4,0.8-2.2,1.1
			c-0.2,0.1-0.5,0.2-0.7,0.3c-0.6,0.3-1.1,0.5-1.7,0.7c-0.3,0.1-0.6,0.2-0.9,0.3c-0.1,0-0.2,0.1-0.2,0.1c-0.5,0.2-1.1,0.3-1.6,0.5
			c-0.5,0.1-0.9,0.3-1.5,0.4c-0.4,0.1-0.8,0.2-1.1,0.2c-0.7,0.1-1.5,0.3-2.3,0.4c-0.1,0-0.2,0-0.3,0c-4.2,0.5-9.7,0.3-15.5-2.1
			c-0.7-0.3-3.9-1.7-7.5-4.5c-0.1-0.1-0.2-0.1-0.3-0.2c-0.7-0.6-1.4-1.2-2.1-1.9c-0.1-0.1-0.1-0.1-0.2-0.1c-0.1-0.1-0.1-0.2-0.2-0.2
			c-0.7-0.7-1.3-1.4-2-2.1c0-0.1-0.1-0.1-0.1-0.2c-0.6-0.7-1.2-1.5-1.8-2.4c0,0,0-0.1-0.1-0.1c-0.4-0.6-0.8-1.2-1.2-1.9
			c-0.1-0.2-0.2-0.4-0.4-0.7c-0.1-0.1-0.1-0.3-0.2-0.4c-0.3-0.5-0.6-1.2-1-2c-0.2-0.4-0.4-0.9-0.5-1.3c-0.2-0.5-0.4-1.1-0.6-1.6
			c-0.1-0.3-0.2-0.6-0.3-0.9c-0.6-1.9-1.1-4.1-1.2-6.5c0-0.2,0-0.5,0-0.7c0.1,2.5,0.3,7.9,1,11.6C94.7,112.7,103.5,122.5,114,127.4z
			"/>
		<path class="st4" d="M91.6,90.5c0-0.6,0-1,0-1.2c0-0.1,0-0.2,0-0.2C91.6,89.1,91.6,89.8,91.6,90.5z"/>
	</g>
	<g>
		<path class="st4" d="M84.4,50c-6.2-2.9-11.9-3.3-16.1-3.6c-6.7-0.5-12.3,0.2-16.1,1c0.1,0.7,0.2,1.7,0.3,2.9c0,1.3,0,4.6-1.9,8.1
			c-0.3,0.5-1.1,2.1-2.8,3.7c-0.6,0.6-1.9,1.8-3.7,2.9c-2.4,1.4-4.6,1.9-5.6,2c-2.2,0.4-4.1,0.3-5.4,0.1c-0.1,0.3-1.1,2.5-1.8,4.3
			c-0.4,1-0.7,1.9-0.7,1.9c-0.1,0.3-0.2,0.6-0.3,0.9c-0.3,1.1-0.7,2.1-0.9,3.2c0,0.1,0,0.1,0,0.2c-0.3,1.1-0.5,2.3-0.7,3.4
			c0,0.1,0,0.1,0,0.2c-0.1,0.9-0.2,1.7-0.3,2.6c-0.1,0.5-0.1,1.1-0.1,1.6c-0.1,0.8-0.1,1.7-0.1,2.5c0,0.4,0,0.8,0,1.1c0,1,0,2,0.1,3
			c0,0.1,0,0.2,0,0.4c0.6,8.4,3.5,16.7,8.7,23.8c0.1,0.2,0.3,0.4,0.4,0.6c0.6,0.8,1.2,1.5,1.8,2.3c0.3,0.4,0.6,0.7,0.9,1.1
			c0.5,0.6,1.1,1.2,1.7,1.8c1.1,1.1,2.2,2.1,3.1,2.9c0.2,0.2,0.4,0.4,0.6,0.5c0.2,0.2,0.4,0.3,0.6,0.4c1,0.8,2,1.5,3,2.2
			c0.4,0.3,0.8,0.5,1.3,0.8c0.2,0.1,0.4,0.3,0.6,0.4c0.6,0.3,1.1,0.7,1.7,1c0.1,0,0.1,0.1,0.2,0.1c8.5,4.5,16.5,5.4,20.9,5.5
			c0.3,0,0.7,0,1,0c0.4,0,0.8-0.4,0.8-0.8l-0.2-13.8c0-0.4-0.3-0.8-0.8-0.8c-0.4,0-0.9,0-1.5-0.1c-5-0.3-9.9-1.8-14.3-4.4
			c0,0,0,0,0,0c-0.5-0.3-1-0.6-1.5-1c-0.6-0.4-1.2-0.8-1.8-1.3c-0.2-0.2-0.4-0.3-0.6-0.5c-0.3-0.3-0.7-0.5-1-0.8
			c-0.2-0.1-0.5-0.4-0.9-0.8c0,0-0.1-0.1-0.1-0.1c-0.1-0.1-0.2-0.2-0.3-0.3c-0.3-0.3-0.7-0.7-1-1.1c-2.6-2.9-4.7-6.2-6-9.7
			c-1.5-3.5-2.5-7.8-2.3-12.6c0.3-10.8,6.1-17.9,7.9-20c1.9-2.2,4-3.9,5.9-5.2c0.3-0.2,0.6-0.4,0.9-0.6c0.4-0.3,0.8-0.5,1.2-0.7
			c0.7-0.4,1.4-0.8,2.2-1.1c0.2-0.1,0.5-0.2,0.7-0.3c0.6-0.3,1.1-0.5,1.7-0.7c0.3-0.1,0.6-0.2,0.9-0.3c0.1,0,0.2-0.1,0.2-0.1
			c0.5-0.2,1.1-0.3,1.6-0.5c0.5-0.1,0.9-0.3,1.5-0.4c0.4-0.1,0.8-0.2,1.1-0.2c0.7-0.1,1.5-0.3,2.3-0.4c0.1,0,0.2,0,0.3,0
			c4.2-0.5,9.7-0.3,15.5,2.1c0.7,0.3,3.9,1.7,7.5,4.5c0.1,0.1,0.2,0.1,0.3,0.2c0.7,0.6,1.4,1.2,2.1,1.9c0.1,0.1,0.1,0.1,0.2,0.1
			c0.1,0.1,0.1,0.2,0.2,0.2c0.7,0.7,1.3,1.4,2,2.1c0,0.1,0.1,0.1,0.1,0.2c0.6,0.7,1.2,1.5,1.8,2.4c0,0,0,0.1,0.1,0.1
			c0.4,0.6,0.8,1.2,1.2,1.9c0.1,0.2,0.2,0.4,0.4,0.7c0.1,0.1,0.1,0.3,0.2,0.4c0.3,0.5,0.6,1.2,1,2c0.2,0.4,0.4,0.9,0.5,1.3
			c0.2,0.5,0.4,1.1,0.6,1.6c0.1,0.3,0.2,0.6,0.3,0.9c0.6,1.9,1.1,4.1,1.2,6.5c0,0.2,0,0.5,0,0.7c-0.1-2.5-0.3-7.9-1-11.6
			C103.7,64.7,94.9,54.9,84.4,50z"/>
		<path class="st4" d="M106.8,86.9c0,0.6,0,1,0,1.2c0,0.1,0,0.2,0,0.2C106.8,88.4,106.8,87.6,106.8,86.9z"/>
	</g>
	<path class="st4" d="M123,50.1c0-2.5-0.1-5.1-0.1-7.6c0-0.5,0.4-0.9,0.9-0.9c4.4,0.1,11.4,0.8,19,4.2c6.1,2.7,10.2,6.1,11.8,7.5
		c8.3,7.2,11.9,15.8,13.6,20.7c-2.5-5.8-5.8-9.6-8-11.8c-8.8-8.8-19.6-10.7-24.8-11.5C130.2,49.8,125.9,49.8,123,50.1z"/>
	<path class="st4" d="M75.5,127.3c0,2.5,0.1,5,0.1,7.4c0,0.6-0.5,1-1,1c-4.4-0.1-11.3-0.8-18.9-4.2c-6.1-2.7-10.2-6.1-11.8-7.5
		c-8.3-7.2-11.9-15.8-13.6-20.7c2.5,5.8,5.8,9.6,8,11.8c8.8,8.8,19.6,10.7,24.8,11.5C68.3,127.6,72.5,127.5,75.5,127.3z"/>
	<path class="st4" d="M35.3,62c6.8-0.3,12-6.1,11.6-12.8c0-0.2,0-0.4-0.1-0.6c-3.4,0.8-7.4,2.1-11.8,4c-3.8,1.7-6.9,3.5-9.5,5.3
		C28,60.6,31.5,62.2,35.3,62z"/>
	<path class="st4" d="M163.9,115.6c-6.8,0-12.3,5.4-12.3,12.2c0,0.2,0,0.4,0,0.6c3.4-0.6,7.5-1.7,12-3.4c3.8-1.5,7.1-3.2,9.8-4.8
		C171.2,117.5,167.7,115.7,163.9,115.6z"/>
</g>
</svg>
