<?xml version="1.0" encoding="utf-8"?>
<!-- Generator: Adobe Illustrator 20.1.0, SVG Export Plug-In . SVG Version: 6.00 Build 0)  -->
<svg version="1.1" id="Layer_1" xmlns="http://www.w3.org/2000/svg" xmlns:xlink="http://www.w3.org/1999/xlink" x="0px" y="0px"
	 viewBox="0 0 100 100" style="enable-background:new 0 0 100 100;" xml:space="preserve">
<style type="text/css">
	.st0{display:none;}
	.st1{display:inline;}
	.st2{clip-path:url(#SVGID_2_);}
</style>
<g class="st0">
	<path class="st1" d="M90.2,58.7v29.8H73V60.7c0-7-2.5-11.7-8.7-11.7c-4.8,0-7.6,3.2-8.9,6.3c-0.5,1.1-0.6,2.7-0.6,4.2v29H37.6
		c0,0,0.2-47,0-51.9h17.3v7.4c0,0.1-0.1,0.1-0.1,0.2h0.1v-0.2c2.3-3.5,6.4-8.6,15.5-8.6C81.7,35.3,90.2,42.8,90.2,58.7L90.2,58.7z
		 M19.5,11.5c-5.9,0-9.8,3.9-9.8,9c0,5,3.8,9,9.5,9h0.1c6,0,9.8-4,9.8-9C29.1,15.4,25.4,11.5,19.5,11.5L19.5,11.5z M10.8,88.5H28
		V36.6H10.8V88.5z M10.8,88.5"/>
</g>
<g>
	<g>
		<defs>
			<rect id="SVGID_1_" x="29" y="11.5" width="42" height="76.9"/>
		</defs>
		<clipPath id="SVGID_2_">
			<use xlink:href="#SVGID_1_"  style="overflow:visible;"/>
		</clipPath>
		<path class="st2" d="M69,11.5l-10,0c-11.2,0-18.4,7.4-18.4,18.9v8.7h-10c-0.9,0-1.6,0.7-1.6,1.6v12.6c0,0.9,0.7,1.6,1.6,1.6h10
			v31.9c0,0.9,0.7,1.6,1.6,1.6h13.1c0.9,0,1.6-0.7,1.6-1.6V54.9h11.7c0.9,0,1.6-0.7,1.6-1.6l0-12.6c0-0.4-0.2-0.8-0.5-1.1
			c-0.3-0.3-0.7-0.5-1.1-0.5H56.8v-7.4c0-3.6,0.8-5.4,5.5-5.4l6.7,0c0.9,0,1.6-0.7,1.6-1.6V13C70.6,12.2,69.9,11.5,69,11.5L69,11.5z
			 M69,11.5"/>
	</g>
</g>
</svg>
