<?xml version="1.0" encoding="utf-8"?>
<!-- Generator: Adobe Illustrator 21.0.0, SVG Export Plug-In . SVG Version: 6.00 Build 0)  -->
<svg version="1.1" id="Layer_1" xmlns="http://www.w3.org/2000/svg" xmlns:xlink="http://www.w3.org/1999/xlink" x="0px" y="0px"
	 viewBox="0 0 121.5 188.6" style="enable-background:new 0 0 121.5 188.6;" xml:space="preserve">
<style type="text/css">
	.st0{fill:#29ABD3;stroke:#29ABD3;stroke-miterlimit:10;}
	.st1{fill:#FCAD65;}
	.st2{fill:#29ABD3;}
	.st3{fill:none;stroke:#4D4D4D;stroke-width:1.2;stroke-miterlimit:10;}
	.st4{fill:#4D4D4D;}
	.st5{fill:none;stroke:#4D4D4D;stroke-miterlimit:10;}
</style>
<path class="st0" d="M5.7,154.5c0.5-1.5,1.3-2.8,2.3-3.9c1-1.1,2.2-2,3.6-2.6c1.4-0.6,3-0.9,4.8-0.9s3.4,0.3,4.8,0.9
	c1.4,0.6,2.6,1.5,3.6,2.6s1.7,2.4,2.3,3.9c0.5,1.5,0.8,3.1,0.8,4.9c0,1.7-0.3,3.3-0.8,4.8s-1.3,2.8-2.3,3.8c-1,1.1-2.2,1.9-3.6,2.6
	c-1.4,0.6-3,0.9-4.8,0.9s-3.4-0.3-4.8-0.9C10.2,170,9,169.1,8,168s-1.7-2.4-2.3-3.8c-0.5-1.5-0.8-3.1-0.8-4.8
	C4.9,157.6,5.2,156,5.7,154.5z M10.4,162.2c0.2,0.9,0.6,1.8,1.1,2.5s1.2,1.3,2,1.8s1.8,0.7,2.9,0.7c1.2,0,2.1-0.2,2.9-0.7
	s1.5-1,2-1.8c0.5-0.7,0.9-1.6,1.1-2.5c0.2-0.9,0.3-1.9,0.3-2.9s-0.1-2-0.3-3s-0.6-1.8-1.1-2.6s-1.2-1.4-2-1.8
	c-0.8-0.4-1.8-0.7-2.9-0.7c-1.2,0-2.1,0.2-2.9,0.7c-0.8,0.4-1.5,1-2,1.8s-0.9,1.6-1.1,2.6c-0.2,1-0.3,2-0.3,3
	C10,160.3,10.1,161.3,10.4,162.2z"/>
<path class="st0" d="M37.3,147.6l9.7,15.7h0.1v-15.7h4.8v23.3h-5.1l-9.7-15.6H37v15.6h-4.8v-23.3H37.3z"/>
<path class="st0" d="M62.4,147.6v23.3h-5.1v-23.3H62.4z"/>
<path class="st0" d="M79.3,147.6l8.7,23.3h-5.3l-1.8-5.2h-8.7l-1.8,5.2h-5.2l8.8-23.3H79.3z M79.6,161.9l-2.9-8.6h-0.1l-3,8.6H79.6z
	"/>
<path class="st0" d="M96.1,147.6v19h11.4v4.3H91v-23.3H96.1z"/>
<path class="st0" d="M115.1,165.1c0.3,0.5,0.7,1,1.1,1.3c0.5,0.3,1,0.6,1.6,0.8s1.3,0.2,2,0.2c0.5,0,0.9,0,1.5-0.1
	c0.5-0.1,1-0.2,1.5-0.4s0.8-0.5,1.1-0.9s0.5-0.9,0.5-1.5s-0.2-1.1-0.6-1.5c-0.4-0.4-0.9-0.7-1.6-1c-0.7-0.3-1.4-0.5-2.2-0.7
	s-1.7-0.4-2.5-0.7c-0.9-0.2-1.7-0.5-2.5-0.8s-1.6-0.7-2.2-1.2c-0.7-0.5-1.2-1.1-1.6-1.9c-0.4-0.8-0.6-1.7-0.6-2.7
	c0-1.2,0.3-2.2,0.8-3.1c0.5-0.9,1.2-1.6,2-2.2c0.8-0.6,1.8-1,2.8-1.3s2.1-0.4,3.1-0.4c1.2,0,2.4,0.1,3.5,0.4c1.1,0.3,2.1,0.7,3,1.3
	s1.6,1.4,2.1,2.3c0.5,0.9,0.8,2.1,0.8,3.4h-5c0-0.7-0.2-1.3-0.4-1.7c-0.3-0.5-0.6-0.8-1-1.1s-0.9-0.4-1.4-0.6
	c-0.5-0.1-1.1-0.2-1.7-0.2c-0.4,0-0.8,0-1.2,0.1s-0.8,0.2-1.1,0.5c-0.3,0.2-0.6,0.5-0.8,0.8s-0.3,0.7-0.3,1.2s0.1,0.8,0.3,1.1
	s0.5,0.5,1,0.8c0.5,0.2,1.2,0.5,2.1,0.7c0.9,0.2,2.1,0.5,3.5,0.9c0.4,0.1,1,0.2,1.8,0.5s1.5,0.6,2.3,1.1s1.4,1.2,2,2
	s0.8,1.9,0.8,3.2c0,1.1-0.2,2.1-0.6,3s-1,1.7-1.8,2.4s-1.8,1.2-3,1.6c-1.2,0.4-2.6,0.6-4.2,0.6c-1.3,0-2.5-0.2-3.7-0.5
	s-2.3-0.8-3.2-1.5s-1.7-1.5-2.2-2.6c-0.5-1-0.8-2.3-0.8-3.7h5C114.6,163.9,114.8,164.6,115.1,165.1z"/>
<g>
	<path class="st1" d="M107.1,113v-13c0.8,0,5,0,8.4,3.3c3.9,3.8,3.5,8.9,3.5,9.6C115,113,111,113,107.1,113z"/>
	<path class="st2" d="M108.3,114.4H119c0,1.2-0.2,3.6-1.5,6.1c-0.9,1.7-2.1,2.8-2.9,3.5C112.5,120.8,110.4,117.6,108.3,114.4z"/>
	<path class="st3" d="M106.1,97.5c2.2,0.1,6.6,0.5,10.2,3.8c6.2,5.5,6.3,15.7,2.4,21.8c-1,1.6-2.2,2.7-3,3.4"/>
	<path class="st4" d="M104.9,114.1V97v-0.1c-9.5,0-17.2,7.7-17.2,17.2s7.7,17.2,17.2,17.2c3.5,0,6.8-1.1,9.5-2.9L104.9,114.1z
		 M94.9,126.9c-6-4.7-6.1-11.9-6.1-12.8c0-5.6,2.9-10.7,7.5-13.6c3-1.9,6.1-2.3,7.7-2.4c0,5,0,9.9,0,14.9v1.1v0.4
		c3,4.5,6.1,9,9.1,13.5c-1.1,0.7-2.9,1.6-5.2,2C100.8,131.3,95.3,127.2,94.9,126.9z"/>
	<line class="st3" x1="104.5" y1="114.4" x2="92.2" y2="124.8"/>
	
		<ellipse transform="matrix(3.308930e-02 -0.9995 0.9995 3.308930e-02 16.2722 214.2555)" class="st4" cx="118.9" cy="98.7" rx="0.8" ry="0.8"/>
	
		<ellipse transform="matrix(3.308930e-02 -0.9995 0.9995 3.308930e-02 16.1962 219.3865)" class="st4" cx="121.5" cy="101.3" rx="0.8" ry="0.8"/>
	
		<ellipse transform="matrix(3.308930e-02 -0.9995 0.9995 3.308930e-02 15.1346 224.0338)" class="st4" cx="123.4" cy="104.2" rx="0.8" ry="0.8"/>
	
		<ellipse transform="matrix(0.9907 -0.1357 0.1357 0.9907 -13.4779 17.9289)" class="st4" cx="124.8" cy="107.8" rx="0.8" ry="0.8"/>
	<ellipse transform="matrix(0.9907 -0.1357 0.1357 0.9907 -14.0418 18.0494)" class="st4" cx="125.4" cy="112" rx="0.8" ry="0.8"/>
	
		<ellipse transform="matrix(0.9907 -0.1357 0.1357 0.9907 -15.1797 17.9637)" class="st4" cx="124.2" cy="120.3" rx="0.8" ry="0.8"/>
	
		<ellipse transform="matrix(0.9907 -0.1357 0.1357 0.9907 -14.6118 18.0754)" class="st4" cx="125.3" cy="116.2" rx="0.8" ry="0.8"/>
	<ellipse transform="matrix(0.9907 -0.1357 0.1357 0.9907 -15.6985 17.7395)" class="st4" cx="122.3" cy="124" rx="0.8" ry="0.8"/>
</g>
<path class="st4" d="M97.4,46.9L95,45.6l1.3-2.4c0.4-0.7,0.1-1.6-0.6-2l0,0c-0.7-0.4-1.6-0.1-2,0.6l-1.3,2.4L90,42.9
	c-0.7-0.4-1.6-0.1-2,0.6l0,0c-0.4,0.7-0.1,1.6,0.6,2l2.4,1.3l-1.3,2.4c-0.4,0.7-0.1,1.6,0.6,2l0,0c0.7,0.4,1.6,0.1,2-0.6l1.3-2.4
	l2.4,1.3c0.7,0.4,1.6,0.1,2-0.6l0,0C98.3,48.2,98.1,47.3,97.4,46.9z"/>
<g>
	<path class="st4" d="M90.5,93.1v-5.5c0-0.2-0.1-0.3-0.3-0.3H90c-0.1,0-0.3,0.1-0.3,0.2c-0.4,0.6-1.1,1-1.9,0.8
		c-0.7-0.2-1.2-0.7-1.3-1.3c-0.3-1.2,0.6-2.3,1.8-2.3c0.6,0,1.2,0.3,1.5,0.9c0.1,0.1,0.2,0.2,0.3,0.2h0.2c0.2,0,0.3-0.1,0.3-0.3V80
		c0-0.5-0.4-1-1-1H76.5c-0.5,0-1,0.4-1,1v13.1c0,0.5,0.4,1,1,1h5.4c0.2,0,0.3,0.1,0.3,0.3v0.3c0,0.2-0.1,0.3-0.2,0.4
		c-0.7,0.5-1.2,1.4-1,2.4s0.9,1.8,1.9,2c1.6,0.3,3-0.9,3-2.4c0-0.8-0.4-1.5-1-2c-0.1-0.1-0.2-0.2-0.2-0.4v-0.3
		c0-0.2,0.1-0.3,0.3-0.3h4.7C90.1,94.1,90.5,93.7,90.5,93.1z"/>
	<path class="st5" d="M78.7,86.8H65.6c-0.5,0-1,0.4-1,1v4.8c0,0.3-0.2,0.5-0.5,0.5h-0.7c-0.2,0-0.3-0.1-0.4-0.2
		c-0.5-0.7-1.4-1.2-2.4-1s-1.8,1-2,2c-0.3,1.5,0.9,2.9,2.4,2.9c0.8,0,1.5-0.4,2-1c0.1-0.1,0.3-0.2,0.4-0.2h0.7
		c0.3,0,0.5,0.2,0.5,0.5v5c0,0.5,0.4,1,1,1H71c0.2,0,0.3,0.1,0.3,0.3v0.3c0,0.2-0.1,0.3-0.2,0.4c-0.7,0.5-1.2,1.4-1,2.4
		s0.9,1.8,1.9,2c1.6,0.3,3-0.9,3-2.4c0-0.8-0.4-1.5-1-2c-0.1-0.1-0.2-0.2-0.2-0.4v-0.3c0-0.2,0.1-0.3,0.3-0.3h4.7c0.5,0,1-0.4,1-1
		V100v-4.3v-2.2v-2.6V88C79.7,87.2,79.2,86.8,78.7,86.8z"/>
</g>
<g>
	<path class="st5" d="M115.4,63h-6.3c-0.3,0-0.5,0.2-0.5,0.5v18.4c0,2,2.1,3.4,4.1,3.3c1.8-0.2,3.3-1.6,3.2-3.3V63.5
		C115.9,63.2,115.7,63,115.4,63z"/>
	<path class="st5" d="M115.6,77.9H105c-0.5,0-0.8-0.4-0.8-0.8V65.2"/>
	<path class="st5" d="M114.4,48.5H110c-0.2,0-0.4,0.2-0.4,0.4v13.8c0,0.2,0.2,0.4,0.4,0.4h4.4c0.2,0,0.4-0.2,0.4-0.4V48.8
		C114.8,48.6,114.6,48.5,114.4,48.5z"/>
	<path class="st5" d="M113.9,46.5c-0.5,0.8-0.6,1.5-0.7,1.9h-1h-1c0-0.4-0.2-1.2-0.7-1.9c-0.4-0.6-0.9-1-1.2-1.3
		c0.5-0.6,1-1.3,1.6-2c0.5-0.7,0.9-1.3,1.3-1.9c0.4,0.6,0.8,1.3,1.2,1.9c0.5,0.8,1.1,1.4,1.6,2C114.8,45.5,114.3,45.9,113.9,46.5z"
		/>
	<rect x="109.7" y="51.9" class="st4" width="5.1" height="2.8"/>
	<circle class="st5" cx="104.2" cy="63.1" r="2.4"/>
</g>
<g>
	<line class="st5" x1="66.5" y1="135.7" x2="90.6" y2="135.7"/>
	<circle class="st4" cx="63.2" cy="135.7" r="1.5"/>
	<circle class="st4" cx="58.5" cy="135.7" r="1.5"/>
	<circle class="st4" cx="53.7" cy="135.7" r="1.5"/>
</g>
</svg>
