<?xml version="1.0" encoding="utf-8"?>
<!-- Generator: Adobe Illustrator 21.0.0, SVG Export Plug-In . SVG Version: 6.00 Build 0)  -->
<svg version="1.1" id="Layer_1" xmlns="http://www.w3.org/2000/svg" xmlns:xlink="http://www.w3.org/1999/xlink" x="0px" y="0px"
	 viewBox="0 0 136.8 188.6" style="enable-background:new 0 0 136.8 188.6;" xml:space="preserve">
<style type="text/css">
	.st0{fill:#FCAD65;}
	.st1{fill:#4D4D4D;}
	.st2{fill:#29ABD3;}
	.st3{fill:none;stroke:#4D4D4D;stroke-miterlimit:10;}
	.st4{fill:none;stroke:#000000;stroke-miterlimit:10;}
	.st5{fill:#29ABD3;stroke:#29ABD3;stroke-miterlimit:10;}
	.st6{fill:#E6E6E6;}
</style>
<path class="st0" d="M40.3,62.9c-3.8,0-6.8,3.1-6.8,6.8c0,3.8,3.1,6.8,6.8,6.8c3.8,0,6.8-3.1,6.8-6.8C47.1,65.9,44.1,62.9,40.3,62.9
	z M40.3,74.5c-2.6,0-4.8-2.1-4.8-4.8s2.1-4.8,4.8-4.8c2.6,0,4.8,2.1,4.8,4.8S42.9,74.5,40.3,74.5z"/>
<path class="st1" d="M40.3,80.4c-3.8,0-6.8,3.1-6.8,6.8c0,3.8,3.1,6.8,6.8,6.8c3.8,0,6.8-3.1,6.8-6.8C47.1,83.4,44.1,80.4,40.3,80.4
	z M40.3,92c-2.6,0-4.8-2.1-4.8-4.8c0-2.6,2.1-4.8,4.8-4.8c2.6,0,4.8,2.1,4.8,4.8C45.1,89.8,42.9,92,40.3,92z"/>
<path class="st2" d="M40.3,97.1c-3.8,0-6.8,3.1-6.8,6.8c0,3.8,3.1,6.8,6.8,6.8c3.8,0,6.8-3.1,6.8-6.8S44.1,97.1,40.3,97.1z
	 M40.3,108.7c-2.6,0-4.8-2.1-4.8-4.8s2.1-4.8,4.8-4.8c2.6,0,4.8,2.1,4.8,4.8S42.9,108.7,40.3,108.7z"/>
<path class="st3" d="M37,69.3c0.3,0.5,0.5,1,0.8,1.5c0.2,0.3,0.5,0.4,0.8,0.2c1.6-0.9,3.2-1.8,4.8-2.7"/>
<path class="st3" d="M37,86.8c0.3,0.5,0.5,1,0.8,1.5c0.2,0.3,0.5,0.4,0.8,0.2c1.6-0.9,3.2-1.8,4.8-2.7"/>
<path class="st4" d="M37,103.6c0.3,0.5,0.5,1,0.8,1.5c0.2,0.3,0.5,0.4,0.8,0.2c1.6-0.9,3.2-1.8,4.8-2.7"/>
<path class="st1" d="M64,86.1H51.5c-0.4,0-0.7-0.3-0.7-0.7l0,0c0-0.4,0.3-0.7,0.7-0.7H64c0.4,0,0.7,0.3,0.7,0.7l0,0
	C64.7,85.8,64.4,86.1,64,86.1z"/>
<path class="st1" d="M66.6,89.6H51.5c-0.4,0-0.7-0.3-0.7-0.7l0,0c0-0.4,0.3-0.7,0.7-0.7h15.1c0.4,0,0.7,0.3,0.7,0.7l0,0
	C67.2,89.3,66.9,89.6,66.6,89.6z"/>
<path class="st1" d="M64,68.6H51.5c-0.4,0-0.7-0.3-0.7-0.7l0,0c0-0.4,0.3-0.7,0.7-0.7H64c0.4,0,0.7,0.3,0.7,0.7l0,0
	C64.7,68.3,64.4,68.6,64,68.6z"/>
<path class="st1" d="M66.6,72.1H51.5c-0.4,0-0.7-0.3-0.7-0.7l0,0c0-0.4,0.3-0.7,0.7-0.7h15.1c0.4,0,0.7,0.3,0.7,0.7l0,0
	C67.2,71.8,66.9,72.1,66.6,72.1z"/>
<path class="st1" d="M64,102.9H51.5c-0.4,0-0.7-0.3-0.7-0.7l0,0c0-0.4,0.3-0.7,0.7-0.7H64c0.4,0,0.7,0.3,0.7,0.7l0,0
	C64.7,102.6,64.4,102.9,64,102.9z"/>
<path class="st1" d="M66.6,106.4H51.5c-0.4,0-0.7-0.3-0.7-0.7l0,0c0-0.4,0.3-0.7,0.7-0.7h15.1c0.4,0,0.7,0.3,0.7,0.7l0,0
	C67.2,106.1,66.9,106.4,66.6,106.4z"/>
<line class="st3" x1="7.3" y1="131.1" x2="33.5" y2="131.1"/>
<line class="st3" x1="35.8" y1="131.1" x2="40.8" y2="131.1"/>
<path class="st5" d="M-5,25.4v-4.3h19.2v4.3h-7v19.1H2.1V25.4H-5z"/>
<path class="st5" d="M35.4,21.1v4.3H23v5h11.4v4H23v5.8h12.7v4.3H17.8V21.1H35.4z"/>
<path class="st5" d="M43.9,38.8c0.3,0.5,0.7,1,1.1,1.3c0.5,0.3,1,0.6,1.7,0.8c0.6,0.2,1.3,0.2,2,0.2c0.5,0,1,0,1.5-0.1
	s1-0.2,1.5-0.4s0.8-0.5,1.2-0.9c0.3-0.4,0.5-0.9,0.5-1.5s-0.2-1.2-0.6-1.5c-0.4-0.4-0.9-0.7-1.6-1c-0.7-0.3-1.4-0.5-2.2-0.7
	s-1.7-0.4-2.5-0.7c-0.9-0.2-1.7-0.5-2.6-0.8s-1.6-0.7-2.2-1.2c-0.7-0.5-1.2-1.1-1.6-1.9c-0.4-0.8-0.6-1.7-0.6-2.7
	c0-1.2,0.3-2.3,0.8-3.1c0.5-0.9,1.2-1.6,2-2.2s1.8-1,2.8-1.3c1.1-0.3,2.1-0.4,3.2-0.4c1.2,0,2.4,0.1,3.5,0.4s2.1,0.7,3,1.3
	c0.9,0.6,1.6,1.4,2.1,2.4s0.8,2.1,0.8,3.5h-5c0-0.7-0.2-1.3-0.4-1.7c-0.3-0.5-0.6-0.8-1-1.1c-0.4-0.3-0.9-0.4-1.4-0.6
	c-0.5-0.1-1.1-0.2-1.8-0.2c-0.4,0-0.8,0-1.2,0.1s-0.8,0.2-1.1,0.5c-0.3,0.2-0.6,0.5-0.8,0.8s-0.3,0.7-0.3,1.2s0.1,0.8,0.3,1.1
	c0.2,0.3,0.5,0.5,1,0.8c0.5,0.2,1.2,0.5,2.1,0.7c0.9,0.2,2.1,0.5,3.6,0.9c0.4,0.1,1,0.2,1.8,0.5s1.6,0.6,2.3,1.1
	c0.8,0.5,1.4,1.2,2,2s0.8,1.9,0.8,3.2c0,1.1-0.2,2.1-0.6,3c-0.4,0.9-1,1.7-1.9,2.4c-0.8,0.7-1.8,1.2-3.1,1.6
	c-1.2,0.4-2.6,0.6-4.2,0.6c-1.3,0-2.5-0.2-3.8-0.5c-1.2-0.3-2.3-0.8-3.2-1.5s-1.7-1.5-2.2-2.6s-0.8-2.3-0.8-3.7h5
	C43.5,37.6,43.6,38.3,43.9,38.8z"/>
<path class="st5" d="M60.3,25.4v-4.3h19.2v4.3h-7v19.1h-5.2V25.4H60.3z"/>
<path class="st5" d="M88.2,21.1v23.5H83V21.1H88.2z"/>
<path class="st5" d="M100.9,21.1l5.5,16.1h0.1l5.2-16.1h7.3v23.5h-4.8V27.9H114l-5.8,16.6h-4L98.4,28h-0.1v16.5h-4.8V21.1H100.9z"/>
<rect x="123.8" y="30.4" class="st5" width="13" height="4.8"/>
<g>
	<path class="st1" d="M20.6,56.9C16.3,52.6,9.3,52.5,5,56.8S0.5,68,4.8,72.4s11.3,4.4,15.6,0.2C24.8,68.3,24.8,61.3,20.6,56.9z
		 M6.2,71c-3.5-3.6-3.5-9.4,0.1-12.9s9.4-3.5,12.9,0.1s3.5,9.4-0.1,12.9S9.7,74.6,6.2,71z"/>
	<path class="st1" d="M-9,85.9L-9,85.9c-0.7-0.7-0.6-1.7,0-2.4L1.7,73.1c0.1-0.1,0.1,0,0.2,0l2.2,2.2c0.1,0.1,0,0.1,0,0.2L-6.6,85.9
		C-7.2,86.5-8.3,86.5-9,85.9z"/>
	
		<rect x="-0.6" y="74.9" transform="matrix(0.7145 -0.6997 0.6997 0.7145 -53.4367 22.1996)" class="st6" width="2.2" height="3.4"/>
	<line class="st3" x1="4.8" y1="72.4" x2="2.7" y2="74.5"/>
	<path class="st3" d="M-3.2,65.4c2.3,0,4.5,0,6.8,0.1l3.1,3.2l1.2-3.4h2.6l5.6-14.2L20.3,65c2.2,0,4.5,0,6.7,0.1"/>
</g>
<g>
	<circle class="st3" cx="5.6" cy="106.4" r="12.3"/>
	<line class="st3" x1="5.6" y1="94" x2="5.6" y2="118.7"/>
	<path class="st3" d="M5.6,94c0.4,0.2,7,4.4,7,12.4c0,7.8-6.2,12-6.6,12.3"/>
	<path class="st3" d="M5.6,94c-0.4,0.2-7,4.4-7,12.4c0,7.8,6.2,12,6.6,12.3"/>
	<line class="st3" x1="-5.9" y1="101.9" x2="17.1" y2="101.9"/>
	<line class="st3" x1="-5.9" y1="110.5" x2="17.1" y2="110.5"/>
</g>
<g>
	<path class="st3" d="M45.4,154.6h-9.1c-1,0-1.8-0.8-1.8-1.8v-9.1c0-1,0.8-1.8,1.8-1.8h9.1c1,0,1.8,0.8,1.8,1.8v9.1
		C47.2,153.8,46.4,154.6,45.4,154.6z"/>
	<line class="st3" x1="34.9" y1="154.3" x2="46.8" y2="142.3"/>
	<line class="st3" x1="34.9" y1="142.3" x2="46.8" y2="154.3"/>
</g>
</svg>
